<?xml version="1.0" encoding="UTF-8"?>
<!DOCTYPE svg PUBLIC "-//W3C//DTD SVG 1.1//EN" "http://www.w3.org/Graphics/SVG/1.1/DTD/svg11.dtd">
<!-- Creator: CorelDRAW -->
<svg xmlns="http://www.w3.org/2000/svg" xml:space="preserve" width="2048px" height="2048px" style="shape-rendering:geometricPrecision; text-rendering:geometricPrecision; image-rendering:optimizeQuality; fill-rule:evenodd; clip-rule:evenodd"
viewBox="0 0 2048 2048"
 xmlns:xlink="http://www.w3.org/1999/xlink">
 <defs>
  <style type="text/css">
   <![CDATA[
    .fil2 {fill:none}
    .fil6 {fill:#00796B}
    .fil7 {fill:#00897B}
    .fil5 {fill:#4DB6AC}
    .fil4 {fill:#80CBC4}
    .fil1 {fill:#A7B22E}
    .fil0 {fill:#CDDC39}
    .fil3 {fill:#00796B;fill-rule:nonzero}
   ]]>
  </style>
   <clipPath id="id0">
    <path d="M1024 0c565.539,0 1024,458.461 1024,1024 0,565.539 -458.461,1024 -1024,1024 -565.539,0 -1024,-458.461 -1024,-1024 0,-565.539 458.461,-1024 1024,-1024z"/>
   </clipPath>
 </defs>
 <g id="Layer_x0020_1">
  <metadata id="CorelCorpID_0Corel-Layer"/>
  <path class="fil0" d="M1024 0c565.539,0 1024,458.461 1024,1024 0,565.539 -458.461,1024 -1024,1024 -565.539,0 -1024,-458.461 -1024,-1024 0,-565.539 458.461,-1024 1024,-1024z"/>
  <g style="clip-path:url(#id0)">
   <g id="_461726696">
    <g>
     <path id="_4613592321" class="fil1" d="M2159.87 1737.21l0 0zm-1135.88 -1135.88l0 0z"/>
     <polygon id="_461335880" class="fil1" points="1584,1148.1 2719.88,2283.98 2667.76,2283.75 1531.88,1147.87 "/>
     <polygon id="_461348336" class="fil1" points="1531.88,1147.87 2667.76,2283.75 2562.03,2283.28 1426.15,1147.4 "/>
     <polygon id="_461342264" class="fil1" points="854.67,692.646 1990.55,1828.53 1990.55,1849.69 854.67,713.812 "/>
     <polygon id="_461341976" class="fil1" points="1426.15,1425.5 2562.03,2561.39 2562.03,2582.55 1426.15,1446.67 "/>
     <polygon id="_461346464" class="fil1" points="1426.15,1446.67 2562.03,2582.55 2540.86,2582.55 1404.98,1446.67 "/>
     <polygon id="_461341688" class="fil1" points="1404.98,1446.67 2540.86,2582.55 2159.91,2582.55 1024.03,1446.67 "/>
     <polygon id="_461357048" class="fil1" points="1024.03,1446.67 2159.91,2582.55 2159.88,2582.55 1024,1446.67 "/>
     <polygon id="_461355896" class="fil1" points="621.852,1147.4 1757.73,2283.28 1652,2283.75 516.122,1147.87 "/>
     <polygon id="_461353712" class="fil1" points="643.017,1446.67 1778.9,2582.55 1757.73,2582.55 621.852,1446.67 "/>
     <polygon id="_461330768" class="fil1" points="516.122,1147.87 1652,2283.75 1599.88,2283.98 463.999,1148.1 "/>
     <polygon id="_461348864" class="fil1" points="1024,1446.67 2159.88,2582.55 1778.9,2582.55 643.017,1446.67 "/>
     <polygon id="_461348024" class="fil1" points="854.67,713.812 1990.55,1849.69 1990.55,1902.54 854.67,766.654 "/>
     <polygon id="_461331560" class="fil1" points="1426.15,1147.4 2562.03,2283.28 2562.03,2561.39 1426.15,1425.5 "/>
    </g>
    <path id="_461739824" class="fil1" d="M1023.99 601.332l0 0zm14.7165 14.3681l507.968 495.957 37.3264 36.4429 -52.1256 -0.230315 -105.729 -0.468898 0 278.103 0 21.1654 -21.1666 0 -380.947 0 -0.034252 0 -380.981 0 -21.1654 0 0 -21.1654 0 -278.103 -105.73 0.468898 -52.1233 0.230315 37.3252 -36.4429 184.037 -179.692 0 -218.153 0 -21.1654 21.1654 0 126.978 0 21.1654 0 0 21.1654 0 52.8426 154.605 -150.954 14.7248 -14.3587 0.741733 0.722835 13.9654 13.6358z"/>
   </g>
  </g>
  <path class="fil2" d="M1024 0c565.539,0 1024,458.461 1024,1024 0,565.539 -458.461,1024 -1024,1024 -565.539,0 -1024,-458.461 -1024,-1024 0,-565.539 458.461,-1024 1024,-1024z"/>
  <path class="fil3" d="M685.361 935.74l0 -221.928 0 -21.1654 21.1654 0 126.978 0 21.1654 0 0 21.1654 0 56.6174c-32.3835,31.6193 -13.9016,13.5744 -169.309,165.311z"/>
  <polygon class="fil4" points="1024,1446.67 1024,1446.67 643.017,1446.67 621.852,1446.67 621.852,1425.5 621.852,1147.4 516.122,1147.87 463.999,1148.1 501.324,1111.66 1009.28,615.7 1023.99,601.332 1024,601.341 "/>
  <polygon class="fil5" points="1038.71,615.7 1546.67,1111.66 1584,1148.1 1531.88,1147.87 1426.15,1147.4 1426.15,1425.5 1426.15,1446.67 1404.98,1446.67 1024.03,1446.67 1024,1446.67 1024,601.341 1024.74,602.064 "/>
  <path class="fil6" d="M1107.06 1269.11c3.32008,-3.49607 7.89686,-5.48386 12.7134,-5.60434 4.87796,-0.121654 9.64961,1.66536 13.141,5.09174 3.51378,3.32599 5.51811,7.91339 5.63859,12.7476 0.121654,4.92756 -1.70551,9.74765 -5.20276,13.2461l-0.0141732 0.0141732c-9.15119,9.15119 -19.5768,17.0965 -31.4422,22.389 -11.6291,5.18622 -24.1299,7.89213 -36.8693,7.89213 -21.5162,0 -41.7272,-7.7126 -58.3725,-21.1973 -16.3949,-13.2827 -28.4067,-31.3394 -35.3776,-51.1701l-27.763 0c-10.1055,0 -18.2953,-8.19095 -18.2953,-18.2953 0,-10.1055 8.19095,-18.2953 18.2953,-18.2953l20.6917 0c-0.0980316,-2.02205 -0.13937,-4.04764 -0.13937,-6.07323 0,-2.42835 0.0625985,-4.85788 0.20315,-7.28268 0.00590552,-0.108662 0.011811,-0.217323 0.0188977,-0.325985l-20.7744 0c-10.1043,0 -18.2953,-8.19213 -18.2953,-18.2965 0,-10.102 8.19331,-18.2941 18.2953,-18.2941l28.2992 0c7.13032,-19.4788 19.1705,-37.1551 35.4485,-50.1355 16.539,-13.1882 36.5209,-20.7166 57.7654,-20.7166 12.7394,0 25.2402,2.70591 36.8705,7.89213 11.9528,5.32914 22.6276,13.0937 31.6323,22.5709 3.3437,3.51851 5.15079,8.24174 5.02678,13.0937 -0.125197,4.86024 -2.17205,9.45355 -5.69882,12.8032 -3.51969,3.34134 -8.24056,5.14843 -13.0902,5.02441 -4.85788,-0.125197 -9.44646,-2.17559 -12.7925,-5.7 -5.62323,-5.92205 -12.2634,-10.8425 -19.7162,-14.2158 -7.00985,-3.17244 -14.5335,-4.87914 -22.2319,-4.87914 -12.1323,0 -23.4685,4.13386 -33.1807,11.3091 -8.21339,6.06851 -14.8937,14.0469 -19.9016,22.9382l67.1705 0c4.85906,0 9.5067,1.91457 12.9413,5.35276 3.43819,3.44173 5.35512,8.09174 5.35512,12.9567 0,4.85906 -1.92638,9.50079 -5.36103,12.9354 -3.43465,3.43465 -8.07638,5.36103 -12.9354,5.36103l-78.1264 0c-0.0318898,0.390945 -0.0614174,0.78189 -0.0885827,1.17402 -0.145276,2.13662 -0.225591,4.27796 -0.225591,6.4193 0,1.92992 0.0661418,3.85985 0.18189,5.78622 0.00708662,0.101575 0.0129921,0.201969 0.0188977,0.302362l78.2398 0c4.40433,0 8.54764,1.60748 11.7839,4.59685 11.7709,10.8697 6.00591,31.9937 -11.7839,31.9937l-68.0304 0c4.97953,9.31182 11.7602,17.6929 20.1933,24.0638 9.82678,7.42442 21.3709,11.7142 33.7488,11.7142 7.69371,0 15.215,-1.70906 22.2201,-4.88032 7.45158,-3.37087 14.0504,-8.55709 19.8154,-14.3067z"/>
  <polygon class="fil7" points="691.562,1055.03 1009.03,737.56 1023.99,722.595 1038.96,737.56 1356.43,1055.03 1326.51,1084.96 1023.99,782.453 721.491,1084.96 "/>
 </g>
</svg>
