<?xml version="1.0" encoding="utf-8"?>
<!-- Generator: Adobe Illustrator 19.2.1, SVG Export Plug-In . SVG Version: 6.00 Build 0)  -->
<svg version="1.1" xmlns="http://www.w3.org/2000/svg" xmlns:xlink="http://www.w3.org/1999/xlink" x="0px" y="0px"
	 viewBox="0 0 512 512" style="enable-background:new 0 0 512 512;" xml:space="preserve">
<style type="text/css">
	.st0{display:none;}
	.st1{fill:#75A897;}
	.st2{fill:#D5872A;}
	.st3{fill:#5082A9;}
	.st4{fill:#E09C6F;}
	.st5{fill:#E4C856;}
	.st6{fill:#87B7DD;}
	.st7{fill:#B9BDC2;}
	.st8{fill:#57646E;}
	.st9{fill:#CA6A46;}
	.st10{fill:#1F3049;}
	.st11{fill:#298063;}
	.st12{fill:#C93A3A;}
	.st13{fill:#DA8B80;}
	.st14{fill:#C9402E;}
	.st15{fill:#E29E6F;}
	.st16{fill:#A32929;}
	.st17{fill:#F5F5F5;}
	.st18{fill:#C9553E;}
	.st19{fill:#E09E9A;}
	.st20{fill:#FFFFFF;}
	.st21{fill:#E6A585;}
	.st22{fill:#4E3333;}
	.st23{fill:#2B5F87;}
	.st24{opacity:0.31;fill:#FFFFFF;}
	.st25{fill:#E6CA56;}
	.st26{fill:#4D917B;}
	.st27{fill:#B8B8B8;}
	.st28{fill:#8998A0;}
	.st29{fill:#394755;}
	.st30{fill:#F2D1B4;}
	.st31{fill:#ECE4C7;}
	.st32{fill:#F1CB58;}
	.st33{fill:#E1E1E1;}
</style>
<g id="GUIDELINES" class="st0">
</g>
<g id="Layer_9">
</g>
<g id="ICON">
	<ellipse class="st7" cx="256.4" cy="254.8" rx="256" ry="256"/>
</g>
<g id="Layer_8">
	<g>
		<g>
			<polygon class="st9" points="147.6,201.7 179.1,170.2 179.1,93.5 147.6,93.5 			"/>
			<path class="st11" d="M139.7,107c0,1.2,1,2.3,2.2,2.3h42.8c1.2,0,2.2-1,2.2-2.3V91.3c0-1.2-1-2.3-2.2-2.3H142
				c-1.2,0-2.2,1-2.2,2.3V107z"/>
		</g>
		<g>
			<rect x="277.4" y="225.8" class="st9" width="118" height="138.4"/>
			<polygon class="st1" points="413.2,230.8 325.7,123.3 201.7,123.3 289.1,230.8 			"/>
			<rect x="287.7" y="243.3" class="st4" width="107.8" height="121"/>
			<polygon class="st9" points="201.8,132.6 122.2,225.8 122.2,364.2 281.3,364.2 281.3,225.8 			"/>
			<rect x="329.2" y="319.9" class="st14" width="34.4" height="45.1"/>
			<g>
				<path class="st11" d="M111.6,230.8h15.1l75.1-88.2l75.1,88.2h16.5l-91.7-107.6L110,231C110.5,230.9,111,230.8,111.6,230.8z"/>
			</g>
			<g>
				<g>
					<rect x="325.6" y="251.4" class="st3" width="41.6" height="41.6"/>
					<rect x="343.8" y="246.8" class="st4" width="5.2" height="50.7"/>
					<rect x="321" y="269.6" class="st4" width="50.7" height="5.2"/>
				</g>
			</g>
		</g>
	</g>
	<g>
		<path class="st20" d="M194.3,251.2c0,4.5-0.6,8.5-1.8,12c-1.2,3.5-2.9,6.5-5,8.9c-2.1,2.4-4.7,4.2-7.7,5.5c-3,1.3-6.2,1.9-9.8,1.9
			c-3.7,0-6.9-0.7-9.9-2c-2.9-1.3-5.5-3.2-7.6-5.7c-2.2-2.4-3.8-5.4-5-8.9c-1.2-3.5-1.8-7.4-1.8-11.8c0-4.3,0.6-8.2,1.8-11.7
			c1.2-3.5,2.8-6.4,5-8.9c2.2-2.5,4.7-4.4,7.6-5.7c2.9-1.3,6.2-2,9.9-2c3.5,0,6.8,0.6,9.8,1.9c3,1.3,5.6,3.2,7.7,5.6
			c2.1,2.5,3.8,5.4,5,8.9C193.7,242.8,194.3,246.7,194.3,251.2z M182.7,251.2c0-12.9-4.2-19.4-12.6-19.4c-8.4,0-12.6,6.5-12.6,19.4
			c0,12.9,4.2,19.4,12.6,19.4C178.5,270.6,182.7,264.1,182.7,251.2z M237.1,224.8l-58.3,106.5h-10.7l58.3-106.5H237.1z M259.6,304.7
			c0,4.4-0.6,8.3-1.8,11.8c-1.2,3.5-2.9,6.5-5,9c-2.2,2.5-4.7,4.4-7.7,5.7c-3,1.3-6.3,2-9.9,2c-3.6,0-6.8-0.7-9.8-2
			c-3-1.3-5.5-3.2-7.6-5.7c-2.1-2.5-3.8-5.5-5-9c-1.2-3.5-1.8-7.4-1.8-11.8c0-4.3,0.6-8.1,1.8-11.6c1.2-3.5,2.8-6.4,5-8.9
			c2.1-2.5,4.6-4.4,7.5-5.7c2.9-1.3,6.2-2,9.9-2c3.6,0,6.9,0.7,9.9,2c3,1.3,5.5,3.2,7.7,5.7c2.2,2.5,3.8,5.5,5,8.9
			C259,296.6,259.6,300.4,259.6,304.7z M247.9,304.7c0-12.9-4.2-19.4-12.7-19.4c-8.3,0-12.5,6.5-12.5,19.4c0,13,4.2,19.4,12.5,19.4
			C243.7,324.1,247.9,317.6,247.9,304.7z"/>
	</g>
</g>
</svg>
